<svg width="147" height="30" viewBox="0 0 147 30" fill="none" xmlns="http://www.w3.org/2000/svg">
<path d="M15 1.25L11.25 11.25L1.25 15L11.25 18.75L15 28.75L18.75 18.75L28.75 15L18.75 11.25L15 1.25Z" fill="#D2F75A"/>
<path d="M45.106 22.579C49.792 22.579 51.662 20.423 51.662 18.025C51.662 16.001 50.474 14.395 47.174 13.867L43.038 13.207C41.806 12.987 41.322 12.679 41.322 11.821C41.322 10.875 42.048 10.413 44.424 10.413C47.35 10.413 48.076 11.007 48.076 12.415V12.723H51.398V12.591C51.398 9.489 49.286 7.399 44.754 7.399C39.804 7.399 38 9.731 38 11.953C38 14.351 39.562 15.671 42.202 16.089L46.338 16.683C47.856 16.947 48.362 17.277 48.362 18.179C48.362 19.169 47.746 19.565 45.106 19.565C42.114 19.565 41.432 19.015 41.432 17.651V17.255H38.132V17.387C38.132 20.819 40.64 22.579 45.106 22.579Z" fill="black"/>
<path d="M62.5959 22.579C67.5899 22.579 70.6039 19.587 70.6039 14.989C70.6039 13.163 70.1419 11.601 69.2619 10.369L70.8239 8.917L69.2399 7.245L67.6119 8.763C66.2919 7.88299 64.6199 7.399 62.5959 7.399C57.7119 7.399 54.6759 10.391 54.6759 14.989C54.6759 16.793 55.1379 18.355 55.9959 19.587L54.3899 21.083L55.9739 22.755L57.6459 21.193C58.9439 22.095 60.6159 22.579 62.5959 22.579ZM58.1739 14.989C58.1739 11.711 59.3619 10.567 62.5959 10.567C63.6739 10.567 64.5539 10.699 65.2139 10.985L58.4819 17.277C58.2619 16.661 58.1739 15.913 58.1739 14.989ZM62.5959 19.411C61.5179 19.411 60.6599 19.279 60.0219 18.993L66.7759 12.701C66.9739 13.295 67.0839 14.065 67.0839 14.989C67.0839 18.267 65.8299 19.411 62.5959 19.411Z" fill="black"/>
<path d="M86.121 22.359V19.389H77.343V7.619H74.043V22.359H86.121Z" fill="black"/>
<path d="M99.2172 22.359L105.333 7.619H101.373L97.0173 19.015H96.7972L92.3752 7.619H88.3932L94.5092 22.359H99.2172Z" fill="black"/>
<path d="M120.509 22.359V19.389H111.335V16.419H120.179V13.471H111.335V10.589H120.509V7.619H108.035V22.359H120.509Z" fill="black"/>
<path d="M127.3 22.359V7.619H124V22.359H127.3Z" fill="black"/>
<path d="M137.979 22.579C141.169 22.579 142.709 21.127 143.215 19.191H143.391V22.359H146.449V14.571H138.155V17.013H143.149C143.061 18.883 142.027 19.411 138.639 19.411C135.405 19.411 134.195 18.267 134.195 14.989C134.195 11.711 135.449 10.567 138.793 10.567C141.631 10.567 142.753 11.381 142.753 13.097V13.273H146.427V13.097C146.427 9.555 143.501 7.399 138.881 7.399C133.821 7.399 130.697 10.391 130.697 14.989C130.697 19.587 133.469 22.579 137.979 22.579Z" fill="black"/>
</svg>
