<svg width="1824" height="339" viewBox="0 0 1824 339" fill="none" xmlns="http://www.w3.org/2000/svg">
<path d="M0 335.97V3.02676H133.177V67.9129H66.967V120.881H129.772V185.011H66.967V335.97H0Z" fill="black"/>
<path d="M151.716 335.97V3.02676H216.035V335.97H151.716Z" fill="black"/>
<path d="M242.519 335.97V3.02676H310.999L341.645 162.499V3.02676H405.964V335.97H340.889L307.594 169.498V335.97H242.519Z" fill="black"/>
<path d="M435.475 335.97V3.02676H503.955L534.601 162.499V3.02676H598.92V335.97H533.844L500.55 169.498V335.97H435.475Z" fill="black"/>
<path d="M798.307 338.997C767.914 338.997 745.97 331.43 732.475 316.296C719.107 301.162 712.423 277.074 712.423 244.032V211.495H778.255V253.113C778.255 260.806 779.39 266.859 781.66 271.273C784.056 275.561 788.155 277.705 793.956 277.705C800.01 277.705 804.172 275.939 806.442 272.408C808.838 268.877 810.036 263.076 810.036 255.004C810.036 244.789 809.027 236.276 807.009 229.466C804.992 222.53 801.46 215.972 796.416 209.792C791.497 203.486 784.624 196.172 775.796 187.848L745.907 159.472C723.584 138.411 712.423 114.323 712.423 87.2085C712.423 58.8326 718.981 37.2039 732.097 22.3223C745.339 7.44078 764.446 0 789.416 0C819.936 0 841.565 8.13441 854.302 24.4032C867.166 40.6721 873.598 65.3906 873.598 98.5588H805.874V75.6689C805.874 71.1288 804.55 67.5976 801.902 65.0753C799.379 62.553 795.911 61.2918 791.497 61.2918C786.2 61.2918 782.291 62.8052 779.768 65.832C777.372 68.7326 776.174 72.5161 776.174 77.1823C776.174 81.8486 777.435 86.8932 779.958 92.3161C782.48 97.7391 787.462 103.982 794.902 111.044L833.304 147.933C840.997 155.247 848.06 163.004 854.492 171.201C860.923 179.272 866.094 188.731 870.004 199.577C873.913 210.297 875.868 223.413 875.868 238.925C875.868 270.201 870.067 294.731 858.464 312.513C846.988 330.169 826.935 338.997 798.307 338.997Z" fill="black"/>
<path d="M977.643 338.997C951.033 338.997 930.665 330.989 916.54 314.972C902.541 298.829 895.542 275.561 895.542 245.167V87.0193C895.542 58.5173 902.478 36.8886 916.351 22.1332C930.35 7.37772 950.78 0 977.643 0C1004.51 0 1024.87 7.37772 1038.75 22.1332C1052.74 36.8886 1059.74 58.5173 1059.74 87.0193V245.167C1059.74 275.561 1052.68 298.829 1038.56 314.972C1024.56 330.989 1004.25 338.997 977.643 338.997ZM978.21 277.705C988.299 277.705 993.344 267.931 993.344 248.383V85.8843C993.344 69.4893 988.426 61.2918 978.589 61.2918C967.491 61.2918 961.942 69.6785 961.942 86.4518V248.762C961.942 259.103 963.203 266.544 965.725 271.084C968.247 275.498 972.409 277.705 978.21 277.705Z" fill="black"/>
<path d="M1086.61 335.97V3.02676H1153.19V279.218H1221.68V335.97H1086.61Z" fill="black"/>
<path d="M1262.91 335.97L1221.86 2.83759H1285.24L1309.64 229.466L1331.4 2.83759H1394.77L1353.72 335.97H1262.91Z" fill="black"/>
<path d="M1414.25 335.97V3.02676H1547.43V67.3454H1481.98V132.231H1544.78V194.848H1481.98V271.084H1551.78V335.97H1414.25Z" fill="black"/>
<path d="M1570.89 335.97V3.02676H1635.21V335.97H1570.89Z" fill="black"/>
<path d="M1730.36 338.997C1682.81 338.997 1659.04 304.946 1659.04 236.844V93.262C1659.04 31.0873 1686.28 0 1740.76 0C1763.21 0 1780.43 4.54014 1792.41 13.6204C1804.39 22.5746 1812.65 35.6905 1817.19 52.9683C1821.73 70.246 1824 91.3072 1824 116.152H1758.92V86.6409C1758.92 79.4524 1757.92 73.4619 1755.9 68.6696C1754.01 63.7511 1749.97 61.2918 1743.79 61.2918C1736.1 61.2918 1730.99 63.8772 1728.47 69.0479C1726.07 74.2186 1724.87 79.8938 1724.87 86.0734V247.437C1724.87 256.392 1726.01 263.706 1728.28 269.381C1730.67 274.931 1735.28 277.705 1742.09 277.705C1749.15 277.705 1753.82 274.931 1756.09 269.381C1758.48 263.706 1759.68 256.266 1759.68 247.059V199.577H1741.9V142.068H1823.24V335.97H1796.57L1785.22 307.973C1773.62 328.655 1755.33 338.997 1730.36 338.997Z" fill="black"/>
</svg>
