<svg width="130" height="130" viewBox="0 0 130 130" fill="none" xmlns="http://www.w3.org/2000/svg">
<rect width="129.091" height="129.091" rx="64.5455" fill="#D2F75A"/>
<path d="M65.0001 46.6667L60.0001 60L46.6667 65L60.0001 70L65.0001 83.3334L70.0001 70L83.3334 65L70.0001 60L65.0001 46.6667Z" fill="black"/>
<path d="M61.3774 19V16.0655H65.8502V15.0182L61.3774 15.0182V12.7491L66.0138 12.7491V11.6909L60.1993 11.6909V19H61.3774Z" fill="black"/>
<path d="M71.7312 19.4104L72.4077 16.6559L73.7102 16.9781C74.5998 17.1981 74.8708 17.5124 75.0506 18.1525L75.7024 20.3927L77.0155 20.7175L76.3342 18.3689C76.1894 17.861 76.0133 17.4803 75.499 17.1958L75.5172 17.1217C76.8698 17.3775 77.8198 16.8484 78.1086 15.6724C78.4339 14.3481 77.6257 13.3391 76.0161 12.9409L72.3308 12.0294L70.5874 19.1275L71.7312 19.4104ZM73.2221 13.3399L75.7531 13.966C76.7062 14.2017 77.0969 14.6692 76.8835 15.5379C76.6649 16.4278 76.1077 16.6384 75.1546 16.4026L72.6236 15.7766L73.2221 13.3399Z" fill="black"/>
<path d="M86.9579 24.9208L87.4483 23.9831L83.3172 21.8072L84.2879 19.9512L88.2742 22.0508L88.7595 21.1228L84.7732 19.0232L85.7237 17.2058L89.8548 19.3817L90.3452 18.444L85.1716 15.7191L81.7844 22.1959L86.9579 24.9208Z" fill="black"/>
<path d="M95.7473 31.457L96.4477 30.6637L92.9583 27.5613L94.3444 25.9911L97.7115 28.9847L98.4046 28.1996L95.0375 25.206L96.3948 23.6685L99.8842 26.7708L100.585 25.9775L96.2146 22.0923L91.3774 27.5718L95.7473 31.457Z" fill="black"/>
<path d="M105.606 44.8362L110.072 44.6189L112.01 44.4413L112.045 44.5331L110.48 45.7006L107.025 48.5916L107.638 50.2141L115.117 49.3286L114.662 48.1245L109.953 48.7493L108.397 49.0146L108.367 48.933L109.668 47.9942L113.435 44.8794L112.83 43.2772L107.986 43.5449L106.4 43.7286L106.369 43.6469L107.701 42.7898L111.604 40.0321L111.141 38.8076L104.992 43.2137L105.606 44.8362Z" fill="black"/>
<path d="M109.746 60.5325L110.796 60.4045L110.235 55.7692L112.314 55.5159L112.855 59.9887L113.895 59.862L113.354 55.3892L115.39 55.1411L115.951 59.7764L117.001 59.6484L116.299 53.8434L109.043 54.7276L109.746 60.5325Z" fill="black"/>
<path d="M109.588 69.8585C109.407 71.3531 110.065 72.2794 111.31 72.4311C112.263 72.5472 113.008 72.0226 113.298 70.8051L113.374 70.8143C113.37 71.9348 113.951 72.4892 114.807 72.5934C115.954 72.7333 116.694 71.9773 116.862 70.591L117.353 66.5297L110.098 65.6456L109.588 69.8585ZM116.163 67.5605L115.827 70.333C115.729 71.1453 115.369 71.4861 114.687 71.403C114.005 71.3198 113.74 70.87 113.839 70.0578L114.17 67.3177L116.163 67.5605ZM113.206 67.2003L112.853 70.1244C112.749 70.98 112.372 71.3736 111.614 71.2813C110.823 71.1849 110.55 70.723 110.654 69.8566L111.008 66.9324L113.206 67.2003Z" fill="black"/>
<path d="M107.309 79.7485L110.051 80.7923L108.47 84.9763L109.449 85.3488L111.03 81.1649L113.151 81.972L111.512 86.309L112.501 86.6854L114.556 81.2463L107.725 78.6464L107.309 79.7485Z" fill="black"/>
<path d="M99.5831 93.7427L100.453 94.3452L103.006 90.6331L108.145 94.1925L108.812 93.2218L102.804 89.0598L99.5831 93.7427Z" fill="black"/>
<path d="M95.1307 98.0363C93.4023 99.5729 93.2591 101.685 94.768 103.395C96.2769 105.104 98.3839 105.216 100.112 103.679C101.824 102.157 101.976 100.037 100.467 98.3281C98.9579 96.6188 96.8428 96.5141 95.1307 98.0363ZM95.8815 98.8868C97.1778 97.7343 98.3317 97.7886 99.5374 99.1544C100.743 100.52 100.665 101.684 99.3686 102.837C98.0723 103.989 96.9031 103.934 95.6974 102.568C94.4917 101.203 94.5852 100.039 95.8815 98.8868Z" fill="black"/>
<path d="M88.0302 103.605L88.7761 108.021L89.1824 109.928L89.0955 109.974L87.753 108.56L84.4783 105.476L82.9436 106.285L84.7093 113.616L85.8482 113.016L84.6699 108.408L84.2222 106.893L84.2994 106.853L85.3841 108.032L88.9176 111.399L90.433 110.601L89.5924 105.816L89.222 104.26L89.2992 104.219L90.3067 105.439L93.5023 108.984L94.6606 108.374L89.5649 102.797L88.0302 103.605Z" fill="black"/>
<path d="M65.8025 110.091V116.342H62.9334V117.4H69.8498V116.342H66.9698V110.091H65.8025Z" fill="black"/>
<path d="M52.2285 108.405L51.9761 109.433L56.5086 110.554L56.0091 112.588L51.6354 111.506L51.3856 112.524L55.7593 113.605L55.2701 115.597L50.7376 114.476L50.4852 115.504L56.1614 116.908L57.9047 109.81L52.2285 108.405Z" fill="black"/>
<path d="M48.1891 107.36L46.1112 111.333L45.6594 112.291L45.5822 112.25L45.6769 111.104L45.7668 106.577L44.5121 105.916L40.8508 108.562L39.9647 109.292L39.8875 109.251L40.4165 108.334L42.4943 104.36L41.4519 103.811L38.0646 110.288L39.4835 111.036L43.2886 108.256L44.5608 107.212L44.638 107.253L44.5241 108.907L44.4254 113.638L45.8442 114.386L49.2315 107.909L48.1891 107.36Z" fill="black"/>
<path d="M36.8329 100.736L35.3745 102.388L33.5809 100.794C32.3661 99.7136 30.9136 99.6776 29.8451 100.888C28.7694 102.107 28.9873 103.541 30.2021 104.621L32.8762 106.999L37.7134 101.519L36.8329 100.736ZM30.9839 103.9C30.1605 103.168 30.0109 102.481 30.7256 101.671C31.4404 100.861 32.1387 100.927 32.9621 101.659L34.6742 103.182L32.696 105.422L30.9839 103.9Z" fill="black"/>
<path d="M24.9179 87.0692L24.048 87.6718L26.6013 91.384L21.4628 94.9434L22.1304 95.9141L28.1388 91.7521L24.9179 87.0692Z" fill="black"/>
<path d="M23.2159 83.5417L21.145 83.4311L19.7798 79.8186L21.2569 78.3577L20.7864 77.1127L15.1084 82.7638L15.6946 84.3149L23.6787 84.7662L23.2159 83.5417ZM17.5593 83.2317L16.4403 83.2023L16.4095 83.1207L17.2277 82.3541L18.9566 80.6338L19.9902 83.3687L17.5593 83.2317Z" fill="black"/>
<path d="M19.3493 68.591L13.1443 69.3471L12.7997 66.4988L11.7492 66.6268L12.58 73.4931L13.6304 73.3651L13.2845 70.5059L19.4895 69.7498L19.3493 68.591Z" fill="black"/>
<path d="M19.7018 55.9498L18.6514 55.8218L18.0905 60.4571L16.0114 60.2038L16.5526 55.7309L15.513 55.6043L14.9718 60.0771L12.9359 59.829L13.4968 55.1937L12.4464 55.0657L11.744 60.8707L18.9994 61.7548L19.7018 55.9498Z" fill="black"/>
<path d="M24.7793 39.7785L23.3176 38.7659L24.3129 37.3188L23.5058 36.7597L22.5105 38.2069L21.0488 37.1943L20.4676 38.0392L21.9294 39.0518L20.9341 40.4989L21.7411 41.0579L22.7365 39.6108L24.1982 40.6234L24.7793 39.7785Z" fill="black"/>
<path d="M31.8387 30.9411L30.6619 29.608L31.9745 28.441L31.3247 27.705L30.0121 28.872L28.8353 27.5389L28.069 28.2202L29.2458 29.5533L27.9332 30.7203L28.5829 31.4564L29.8955 30.2894L31.0723 31.6224L31.8387 30.9411Z" fill="black"/>
<path d="M40.802 24.0559L39.978 22.4802L41.532 21.6617L41.077 20.7917L39.523 21.6102L38.6989 20.0345L37.7916 20.5124L38.6157 22.0881L37.0617 22.9066L37.5167 23.7766L39.0707 22.9581L39.8947 24.5338L40.802 24.0559Z" fill="black"/>
</svg>
