<svg width="132" height="36" viewBox="0 0 132 36" fill="none" xmlns="http://www.w3.org/2000/svg">
<path d="M30.52 13.2468C30.88 13.2468 31 13.3768 31 13.7268V21.6468H35.07C35.42 21.6468 35.55 21.7768 35.55 22.1268V22.8268C35.55 23.1768 35.42 23.3068 35.07 23.3068H29.71C29.36 23.3068 29.22 23.1768 29.22 22.8268V13.7268C29.22 13.3768 29.36 13.2468 29.71 13.2468H30.52Z" fill="black"/>
<path d="M39.1001 16.7369C39.1001 14.4269 40.5601 13.0369 43.1001 13.0369C45.6401 13.0369 47.1001 14.4269 47.1001 16.7369V19.8169C47.1001 22.1269 45.6301 23.5169 43.1001 23.5169C40.5701 23.5169 39.1001 22.1269 39.1001 19.8169V16.7369ZM45.4201 16.7369C45.4201 15.4369 44.6101 14.7369 43.1501 14.7369C41.6901 14.7369 40.8901 15.4469 40.8901 16.7369V19.8369C40.8901 21.1469 41.6901 21.8369 43.1501 21.8369C44.6101 21.8369 45.4201 21.1169 45.4201 19.8369V16.7369Z" fill="black"/>
<path d="M59.0099 17.7968C59.3999 17.7968 59.4899 17.9268 59.4899 18.2768V20.1768C59.5005 20.6243 59.4108 21.0686 59.2274 21.4769C59.0439 21.8853 58.7715 22.2474 58.4299 22.5368C57.5816 23.2123 56.512 23.5474 55.4299 23.4768C52.8399 23.4768 51.4299 22.0868 51.4299 19.7768V16.6768C51.4299 14.3968 52.8899 12.9968 55.4299 12.9968C57.4299 12.9968 58.7299 13.7868 59.2799 15.3668C59.3107 15.4262 59.3272 15.4919 59.3281 15.5587C59.329 15.6256 59.3143 15.6918 59.2852 15.7519C59.2561 15.8121 59.2133 15.8647 59.1603 15.9055C59.1073 15.9462 59.0455 15.9741 58.9799 15.9868L58.1999 16.2568C57.8599 16.3768 57.7199 16.3068 57.5999 15.9568C57.4342 15.5297 57.1309 15.1699 56.7379 14.9345C56.3449 14.6991 55.8847 14.6013 55.4299 14.6568C53.9599 14.6568 53.1599 15.3668 53.1599 16.6568V19.8368C53.1599 21.1468 53.9699 21.8368 55.4299 21.8368C56.8899 21.8368 57.7899 21.1668 57.7899 20.1868V19.4468H55.6199C55.2599 19.4468 55.1299 19.3068 55.1299 18.9568V18.2768C55.1299 17.9268 55.2599 17.7968 55.6199 17.7968H59.0099Z" fill="black"/>
<path d="M63.6201 16.7369C63.6201 14.4269 65.0801 13.0369 67.6201 13.0369C70.1601 13.0369 71.6201 14.4269 71.6201 16.7369V19.8169C71.6201 22.1269 70.1501 23.5169 67.6201 23.5169C65.0901 23.5169 63.6201 22.1269 63.6201 19.8169V16.7369ZM69.9301 16.7369C69.9301 15.4369 69.1201 14.7369 67.6701 14.7369C66.2201 14.7369 65.4001 15.4469 65.4001 16.7369V19.8369C65.4001 21.1469 66.2101 21.8369 67.6701 21.8369C69.1301 21.8369 69.9301 21.1169 69.9301 19.8369V16.7369Z" fill="black"/>
<path d="M76.3301 13.5368C76.3301 13.3168 76.4001 13.2468 76.6201 13.2468H77.0801C77.3001 13.2468 77.3501 13.3168 77.3501 13.5368V23.0168C77.3501 23.2368 77.3501 23.3068 77.0801 23.3068H76.6201C76.4001 23.3068 76.3301 23.2368 76.3301 23.0168V13.5368Z" fill="black"/>
<path d="M86.4599 13.2468C87.2927 13.2468 88.0913 13.5776 88.6802 14.1665C89.2691 14.7553 89.5999 15.554 89.5999 16.3868C89.5999 17.2196 89.2691 18.0183 88.6802 18.6071C88.0913 19.196 87.2927 19.5268 86.4599 19.5268H83.4599V23.0168C83.4599 23.2368 83.4099 23.3068 83.1999 23.3068H82.7299C82.5199 23.3068 82.4399 23.2368 82.4399 23.0168V13.5368C82.4399 13.3168 82.5199 13.2468 82.7299 13.2468H86.4599ZM86.3699 18.5368C86.6562 18.5368 86.9397 18.4804 87.2042 18.3709C87.4686 18.2613 87.709 18.1007 87.9114 17.8983C88.1138 17.6959 88.2744 17.4555 88.384 17.1911C88.4935 16.9266 88.5499 16.6431 88.5499 16.3568C88.5499 16.0705 88.4935 15.787 88.384 15.5225C88.2744 15.2581 88.1138 15.0177 87.9114 14.8153C87.709 14.6129 87.4686 14.4523 87.2042 14.3427C86.9397 14.2332 86.6562 14.1768 86.3699 14.1768H83.3699V18.5368H86.3699Z" fill="black"/>
<path d="M97.4101 13.0469C98.1822 12.9617 98.9611 13.1278 99.6313 13.5205C100.301 13.9133 100.827 14.5117 101.13 15.2269C101.21 15.3869 101.13 15.5169 100.97 15.5969L100.53 15.7969C100.35 15.8669 100.28 15.8569 100.17 15.6669C99.9435 15.1361 99.554 14.6911 99.0578 14.3963C98.5617 14.1015 97.9846 13.9721 97.4101 14.0269C95.7201 14.0269 94.8001 14.6969 94.8001 15.8969C94.7903 16.2636 94.9134 16.6216 95.1469 16.9046C95.3803 17.1876 95.7082 17.3767 96.0701 17.4369C96.6079 17.6123 97.1656 17.7198 97.7301 17.7569C98.4134 17.7933 99.0875 17.9315 99.7301 18.1669C100.223 18.3228 100.647 18.6434 100.931 19.075C101.215 19.5066 101.342 20.0228 101.29 20.5369C101.29 22.4069 99.9301 23.5369 97.4301 23.5369C96.6101 23.6307 95.7827 23.4407 95.0858 22.9985C94.3889 22.5564 93.8645 21.8887 93.6001 21.1069C93.5824 21.0713 93.5729 21.0322 93.5721 20.9924C93.5713 20.9526 93.5794 20.9132 93.5956 20.8769C93.6118 20.8406 93.6359 20.8083 93.6661 20.7824C93.6962 20.7564 93.7317 20.7375 93.7701 20.7269L94.2101 20.5669C94.2447 20.5527 94.282 20.5459 94.3194 20.5469C94.3568 20.5479 94.3936 20.5567 94.4275 20.5727C94.4613 20.5887 94.4915 20.6115 94.516 20.6398C94.5406 20.6681 94.559 20.7011 94.5701 20.7369C94.7938 21.3018 95.1916 21.7808 95.7058 22.1045C96.22 22.4281 96.824 22.5796 97.4301 22.5369C99.3201 22.5369 100.25 21.8769 100.25 20.5369C100.268 20.1847 100.16 19.8376 99.9455 19.5574C99.7313 19.2773 99.4246 19.0822 99.0801 19.0069C98.5627 18.8526 98.0291 18.7586 97.4901 18.7269L96.4101 18.5869C96.0721 18.5152 95.7383 18.425 95.4101 18.3169C95.0859 18.219 94.7837 18.0594 94.5201 17.8469C94.2548 17.6067 94.0457 17.3111 93.9074 16.981C93.7692 16.6509 93.7052 16.2945 93.7201 15.9369C93.7901 14.1869 95.1001 13.0469 97.4101 13.0469Z" fill="black"/>
<path d="M106.68 19.8868C106.722 20.594 107.033 21.2583 107.549 21.744C108.065 22.2297 108.747 22.5001 109.455 22.5001C110.163 22.5001 110.845 22.2297 111.361 21.744C111.877 21.2583 112.187 20.594 112.23 19.8868V13.5368C112.23 13.3168 112.3 13.2468 112.52 13.2468H112.98C113.2 13.2468 113.27 13.3168 113.27 13.5368V19.8768C113.27 22.1468 111.93 23.5168 109.46 23.5168C106.99 23.5168 105.65 22.1468 105.65 19.8768V13.5368C105.65 13.3168 105.72 13.2468 105.93 13.2468H106.4C106.61 13.2468 106.68 13.3168 106.68 13.5368V19.8868Z" fill="black"/>
<path d="M127.07 13.2468C127.29 13.2468 127.36 13.3168 127.36 13.5368V23.0168C127.36 23.2368 127.29 23.3068 127.07 23.3068H126.65C126.44 23.3068 126.37 23.2368 126.37 23.0168V17.2468C126.37 16.4073 126.427 15.5687 126.54 14.7368H126.48C126.168 15.4975 125.803 16.2359 125.39 16.9468L123.24 20.7368C123.214 20.8026 123.168 20.8588 123.109 20.8981C123.05 20.9373 122.981 20.9578 122.91 20.9568H122.63C122.558 20.9572 122.488 20.9365 122.427 20.8975C122.367 20.8584 122.319 20.8026 122.29 20.7368L120.11 16.9068C119.723 16.2061 119.389 15.4774 119.11 14.7268H119.05C119.152 15.5663 119.206 16.4111 119.21 17.2568V23.0168C119.21 23.2368 119.14 23.3068 118.92 23.3068H118.53C118.31 23.3068 118.24 23.2368 118.24 23.0168V13.5368C118.24 13.3168 118.31 13.2468 118.53 13.2468H118.89C118.972 13.2392 119.055 13.2571 119.126 13.2983C119.198 13.3395 119.255 13.4019 119.29 13.4768L122.79 19.6968L126.27 13.5368C126.38 13.3268 126.44 13.2968 126.66 13.2968L127.07 13.2468Z" fill="black"/>
<path d="M12.73 21.7868V29.0168C12.73 29.294 12.6199 29.5598 12.4239 29.7557C12.228 29.9517 11.9622 30.0618 11.685 30.0618C11.4079 30.0618 11.1421 29.9517 10.9461 29.7557C10.7501 29.5598 10.64 29.294 10.64 29.0168V21.7968C10.931 22.0093 11.2798 22.1279 11.64 22.1368C12.0326 22.148 12.4173 22.0245 12.73 21.7868ZM21.63 19.6968C21.3648 19.6968 21.1104 19.8022 20.9229 19.9897C20.7354 20.1772 20.63 20.4316 20.63 20.6968V21.9568C20.63 22.234 20.7401 22.4998 20.9361 22.6957C21.132 22.8917 21.3978 23.0018 21.675 23.0018C21.9522 23.0018 22.218 22.8917 22.4139 22.6957C22.6099 22.4998 22.72 22.234 22.72 21.9568V20.7468C22.7278 20.6034 22.7046 20.46 22.652 20.3264C22.5994 20.1928 22.5187 20.072 22.4152 19.9724C22.3118 19.8728 22.1881 19.7966 22.0527 19.749C21.9172 19.7015 21.773 19.6837 21.63 19.6968ZM8.37 24.5268C8.01017 24.516 7.66183 24.3976 7.37 24.1868V31.4368C7.37 31.7153 7.48062 31.9824 7.67754 32.1793C7.87445 32.3762 8.14152 32.4868 8.42 32.4868C8.69848 32.4868 8.96555 32.3762 9.16246 32.1793C9.35938 31.9824 9.47 31.7153 9.47 31.4368V24.2368C9.14345 24.4479 8.75816 24.5495 8.37 24.5268ZM18.37 17.5268C18.2345 17.52 18.0991 17.5409 17.9719 17.5881C17.8448 17.6353 17.7286 17.7079 17.6303 17.8014C17.5321 17.895 17.454 18.0075 17.4006 18.1322C17.3473 18.2569 17.3198 18.3912 17.32 18.5268V24.0968C17.32 24.3753 17.4306 24.6424 17.6275 24.8393C17.8245 25.0362 18.0915 25.1468 18.37 25.1468C18.6485 25.1468 18.9156 25.0362 19.1125 24.8393C19.3094 24.6424 19.42 24.3753 19.42 24.0968V18.5968C19.428 18.4525 19.4046 18.3082 19.3514 18.1738C19.2982 18.0394 19.2166 17.9181 19.112 17.8183C19.0074 17.7185 18.8825 17.6425 18.7458 17.5957C18.6091 17.5488 18.4638 17.5321 18.32 17.5468L18.37 17.5268ZM15.05 19.6668C14.6733 19.6642 14.3067 19.5455 14 19.3268V26.5968C14 26.8753 14.1106 27.1424 14.3075 27.3393C14.5045 27.5362 14.7715 27.6468 15.05 27.6468C15.3285 27.6468 15.5955 27.5362 15.7925 27.3393C15.9894 27.1424 16.1 26.8753 16.1 26.5968V19.3368C15.7828 19.5731 15.3955 19.6963 15 19.6868L15.05 19.6668ZM6.1 25.2368V4.92683C6.09737 4.67926 5.99717 4.44274 5.82117 4.26861C5.64517 4.09448 5.40758 3.99682 5.16 3.99683H4.94C4.69242 3.99682 4.45483 4.09448 4.27883 4.26861C4.10283 4.44274 4.00263 4.67926 4 4.92683V25.2368C4 25.4861 4.09904 25.7252 4.27532 25.9015C4.4516 26.0778 4.6907 26.1768 4.94 26.1768H5.16C5.40931 26.1768 5.6484 26.0778 5.82468 25.9015C6.00097 25.7252 6.1 25.4861 6.1 25.2368ZM8.48 23.7568H8.26C8.0107 23.7568 7.7716 23.6578 7.59532 23.4815C7.41904 23.3052 7.32 23.0661 7.32 22.8168V7.34683C7.32264 7.09927 7.42283 6.86273 7.59883 6.68861C7.77483 6.51448 8.01242 6.41682 8.26 6.41683H8.48C8.72758 6.41682 8.96517 6.51448 9.14117 6.68861C9.31717 6.86273 9.41737 7.09927 9.42 7.34683V22.8368C9.42 23.0861 9.32096 23.3252 9.14468 23.5015C8.9684 23.6778 8.7293 23.7768 8.48 23.7768V23.7568ZM11.79 21.3768H11.56C11.3134 21.3768 11.0768 21.2788 10.9024 21.1044C10.728 20.93 10.63 20.6935 10.63 20.4468V9.74683C10.6287 9.62386 10.6518 9.50185 10.6979 9.38786C10.744 9.27387 10.8123 9.17017 10.8988 9.08275C10.9853 8.99533 11.0883 8.92593 11.2018 8.87857C11.3153 8.83121 11.437 8.80682 11.56 8.80683H11.79C12.0376 8.80947 12.2741 8.90966 12.4482 9.08566C12.6224 9.26166 12.72 9.49925 12.72 9.74683V20.4468C12.72 20.6935 12.622 20.93 12.4476 21.1044C12.2732 21.2788 12.0367 21.3768 11.79 21.3768ZM15.1 18.9268H14.89C14.6424 18.9268 14.4048 18.8292 14.2288 18.655C14.0528 18.4809 13.9526 18.2444 13.95 17.9968V12.2368C13.9418 12.1084 13.96 11.9797 14.0036 11.8586C14.0471 11.7376 14.1151 11.6267 14.2032 11.533C14.2913 11.4392 14.3977 11.3646 14.5159 11.3136C14.634 11.2627 14.7613 11.2365 14.89 11.2368H15.11C15.3593 11.2368 15.5984 11.3358 15.7747 11.5121C15.951 11.6884 16.05 11.9275 16.05 12.1768V17.9768C16.0513 18.1011 16.028 18.2244 15.9813 18.3396C15.9347 18.4548 15.8657 18.5596 15.7782 18.648C15.6908 18.7363 15.5868 18.8064 15.472 18.8543C15.3573 18.9022 15.2343 18.9268 15.11 18.9268H15.1ZM18.42 16.7768H18.2C17.9507 16.7768 17.7116 16.6778 17.5353 16.5015C17.359 16.3252 17.26 16.0861 17.26 15.8368V14.3468C17.2626 14.0992 17.3628 13.8627 17.5388 13.6886C17.7148 13.5144 17.9524 13.4168 18.2 13.4168H18.42C18.6676 13.4168 18.9052 13.5144 19.0812 13.6886C19.2572 13.8627 19.3574 14.0992 19.36 14.3468V15.8368C19.36 16.0844 19.2624 16.322 19.0882 16.498C18.9141 16.674 18.6776 16.7742 18.43 16.7768H18.42Z" fill="black"/>
</svg>
