<svg width="147" height="31" viewBox="0 0 147 31" fill="none" xmlns="http://www.w3.org/2000/svg">
<path d="M15 2.24707L11.25 12.2471L1.25 15.9971L11.25 19.7471L15 29.7471L18.75 19.7471L28.75 15.9971L18.75 12.2471L15 2.24707Z" fill="#D2F75A"/>
<path d="M45.106 23.5762C49.792 23.5762 51.662 21.4202 51.662 19.0222C51.662 16.9982 50.474 15.3922 47.174 14.8642L43.038 14.2042C41.806 13.9842 41.322 13.6762 41.322 12.8182C41.322 11.8722 42.048 11.4102 44.424 11.4102C47.35 11.4102 48.076 12.0042 48.076 13.4122V13.7202H51.398V13.5882C51.398 10.4862 49.286 8.39619 44.754 8.39619C39.804 8.39619 38 10.7282 38 12.9502C38 15.3482 39.562 16.6682 42.202 17.0862L46.338 17.6802C47.856 17.9442 48.362 18.2742 48.362 19.1762C48.362 20.1662 47.746 20.5622 45.106 20.5622C42.114 20.5622 41.432 20.0122 41.432 18.6482V18.2522H38.132V18.3842C38.132 21.8162 40.64 23.5762 45.106 23.5762Z" fill="white"/>
<path d="M62.5959 23.5762C67.5899 23.5762 70.6039 20.5842 70.6039 15.9862C70.6039 14.1602 70.1419 12.5982 69.2619 11.3662L70.8239 9.91419L69.2399 8.24219L67.6119 9.76019C66.2919 8.88019 64.6199 8.39619 62.5959 8.39619C57.7119 8.39619 54.6759 11.3882 54.6759 15.9862C54.6759 17.7902 55.1379 19.3522 55.9959 20.5842L54.3899 22.0802L55.9739 23.7522L57.6459 22.1902C58.9439 23.0922 60.6159 23.5762 62.5959 23.5762ZM58.1739 15.9862C58.1739 12.7082 59.3619 11.5642 62.5959 11.5642C63.6739 11.5642 64.5539 11.6962 65.2139 11.9822L58.4819 18.2742C58.2619 17.6582 58.1739 16.9102 58.1739 15.9862ZM62.5959 20.4082C61.5179 20.4082 60.6599 20.2762 60.0219 19.9902L66.7759 13.6982C66.9739 14.2922 67.0839 15.0622 67.0839 15.9862C67.0839 19.2642 65.8299 20.4082 62.5959 20.4082Z" fill="white"/>
<path d="M86.121 23.3562V20.3862H77.343V8.61619H74.043V23.3562H86.121Z" fill="white"/>
<path d="M99.2172 23.3562L105.333 8.61619H101.373L97.0173 20.0122H96.7972L92.3752 8.61619H88.3932L94.5092 23.3562H99.2172Z" fill="white"/>
<path d="M120.509 23.3562V20.3862H111.335V17.4162H120.179V14.4682H111.335V11.5862H120.509V8.61619H108.035V23.3562H120.509Z" fill="white"/>
<path d="M127.3 23.3562V8.61619H124V23.3562H127.3Z" fill="white"/>
<path d="M137.979 23.5762C141.169 23.5762 142.709 22.1242 143.215 20.1882H143.391V23.3562H146.449V15.5682H138.155V18.0102H143.149C143.061 19.8802 142.027 20.4082 138.639 20.4082C135.405 20.4082 134.195 19.2642 134.195 15.9862C134.195 12.7082 135.449 11.5642 138.793 11.5642C141.631 11.5642 142.753 12.3782 142.753 14.0942V14.2702H146.427V14.0942C146.427 10.5522 143.501 8.39619 138.881 8.39619C133.821 8.39619 130.697 11.3882 130.697 15.9862C130.697 20.5842 133.469 23.5762 137.979 23.5762Z" fill="white"/>
</svg>
