<svg width="79" height="31" viewBox="0 0 79 31" fill="none" xmlns="http://www.w3.org/2000/svg">
<g clip-path="url(#clip0_96_393)">
<path d="M18.6812 0.496826C15.6351 0.496826 12.7138 1.70688 10.5599 3.86079L3.53046 10.8902C1.37655 13.0441 0.166504 15.9654 0.166504 19.0115C0.166504 25.3547 5.30864 30.4968 11.6518 30.4968C14.6979 30.4968 17.6192 29.2867 19.7731 27.1328L24.6354 22.2705C24.6355 22.2706 24.6354 22.2704 24.6354 22.2705L38.8025 8.10343C39.8312 7.07474 41.2264 6.49683 42.6812 6.49683C45.1168 6.49683 47.1817 8.08424 47.8976 10.2809L52.3687 5.80979C50.329 2.61517 46.7525 0.496826 42.6812 0.496826C39.6351 0.496826 36.7138 1.70688 34.5599 3.86079L15.5305 22.8902C14.5018 23.9189 13.1066 24.4968 11.6518 24.4968C8.62234 24.4968 6.1665 22.041 6.1665 19.0115C6.1665 17.5567 6.74441 16.1615 7.7731 15.1328L14.8025 8.10343C15.8312 7.07474 17.2264 6.49683 18.6812 6.49683C21.1169 6.49683 23.1817 8.08431 23.8976 10.281L28.3688 5.8099C26.3291 2.61523 22.7526 0.496826 18.6812 0.496826Z" fill="black"/>
<path d="M39.5304 22.8902C38.5017 23.9189 37.1065 24.4968 35.6517 24.4968C33.2164 24.4968 31.1517 22.9098 30.4356 20.7135L25.9646 25.1845C28.0044 28.3787 31.5807 30.4968 35.6517 30.4968C38.6978 30.4968 41.6191 29.2867 43.773 27.1328L62.8024 8.10343C63.8311 7.07474 65.2263 6.49683 66.6811 6.49683C69.7106 6.49683 72.1664 8.95267 72.1664 11.9821C72.1664 13.4369 71.5885 14.8321 70.5598 15.8608L63.5304 22.8902C62.5017 23.9189 61.1065 24.4968 59.6517 24.4968C57.2162 24.4968 55.1514 22.9095 54.4354 20.713L49.9644 25.1841C52.0041 28.3786 55.5805 30.4968 59.6517 30.4968C62.6978 30.4968 65.6191 29.2867 67.773 27.1328L74.8024 20.1034C76.9563 17.9495 78.1664 15.0282 78.1664 11.9821C78.1664 5.63897 73.0243 0.496826 66.6811 0.496826C63.635 0.496826 60.7137 1.70688 58.5598 3.86079L39.5304 22.8902Z" fill="black"/>
</g>
<defs>
<clipPath id="clip0_96_393">
<rect width="78" height="30" fill="white" transform="translate(0.166504 0.496826)"/>
</clipPath>
</defs>
</svg>
