<svg width="54" height="36" viewBox="0 0 54 36" fill="none" xmlns="http://www.w3.org/2000/svg">
<g clip-path="url(#clip0_96_390)">
<path d="M50.052 2.09057C50.052 2.69464 50.5417 3.18432 51.1458 3.18432H52.2395C52.8436 3.18432 53.3333 2.69464 53.3333 2.09057C53.3333 1.48652 52.8436 0.996826 52.2395 0.996826H51.1458C50.5417 0.996826 50.052 1.48652 50.052 2.09057Z" fill="black"/>
<path d="M18.3333 35.9968H23.6465L22.0997 34.45C21.6895 34.0398 21.1331 33.8093 20.553 33.8093H18.3333C9.87638 33.8093 3.02075 26.9537 3.02075 18.4968C3.02075 10.04 9.87638 3.18433 18.3333 3.18433H35.8333C44.2901 3.18433 51.1458 10.04 51.1458 18.4968C51.1458 26.9537 44.2901 33.8093 35.8333 33.8093H29.2869C28.4166 33.8093 27.582 33.4636 26.9666 32.8483L25.1545 31.0361C24.1289 30.0105 22.7378 29.4343 21.2874 29.4343H18.3333C12.2926 29.4343 7.39575 24.5375 7.39575 18.4968C7.39575 12.4562 12.2926 7.55933 18.3333 7.55933H35.8333C41.8739 7.55933 46.7708 12.4562 46.7708 18.4968C46.7708 24.5375 41.8739 29.4343 35.8333 29.4343H31.6298C30.7596 29.4343 29.925 29.0886 29.3096 28.4733L27.4974 26.6611C26.4718 25.6355 25.0808 25.0593 23.6304 25.0593H18.3333C14.7089 25.0593 11.7708 22.1212 11.7708 18.4968C11.7708 14.8725 14.7089 11.9343 18.3333 11.9343H35.8333C39.4576 11.9343 42.3958 14.8725 42.3958 18.4968C42.3958 22.077 39.5288 24.9876 35.9656 25.058L35.9649 25.0593H34.3642C33.4939 25.0593 32.6594 24.7136 32.044 24.0983L30.2318 22.2861C29.3903 21.4445 28.3027 20.9056 27.1382 20.7393L27.0833 20.6843H18.3333C17.1251 20.6843 16.1458 19.7049 16.1458 18.4968C16.1458 17.2887 17.1251 16.3093 18.3333 16.3093H35.8333C37.0414 16.3093 38.0208 17.2887 38.0208 18.4968C38.0208 19.7049 37.0414 20.6843 35.8333 20.6843H31.4583L33.0051 22.2312C33.4153 22.6414 33.9717 22.8718 34.5518 22.8718H35.8333C38.2495 22.8718 40.2083 20.9131 40.2083 18.4968C40.2083 16.0806 38.2495 14.1218 35.8333 14.1218H18.3333C15.917 14.1218 13.9583 16.0806 13.9583 18.4968C13.9583 20.9131 15.917 22.8718 18.3333 22.8718H26.3648C27.2351 22.8718 28.0696 23.2175 28.685 23.8328L30.4972 25.6451C31.5228 26.6706 32.9138 27.2468 34.3642 27.2468H36.3801V27.23C40.9579 26.9478 44.5833 23.1456 44.5833 18.4968C44.5833 13.6644 40.6657 9.74683 35.8333 9.74683H18.3333C13.5008 9.74683 9.58325 13.6644 9.58325 18.4968C9.58325 23.3294 13.5008 27.2468 18.3333 27.2468H23.6304C24.5007 27.2468 25.3353 27.5925 25.9507 28.2078L27.7629 30.0201C28.7885 31.0456 30.1794 31.6218 31.6298 31.6218H35.8333C43.082 31.6218 48.9583 25.7456 48.9583 18.4968C48.9583 11.2481 43.082 5.37183 35.8333 5.37183H18.3333C11.0845 5.37183 5.20825 11.2481 5.20825 18.4968C5.20825 25.7456 11.0845 31.6218 18.3333 31.6218H21.2874C22.1577 31.6218 22.9923 31.9675 23.6077 32.5828L25.4199 34.3951C26.4455 35.4206 27.8365 35.9968 29.2869 35.9968H35.8333C45.4982 35.9968 53.3333 28.1618 53.3333 18.4968C53.3333 8.83184 45.4982 0.996825 35.8333 0.996826L18.3333 0.99683C8.66826 0.996831 0.833251 8.83185 0.833252 18.4968C0.833253 28.1618 8.66827 35.9968 18.3333 35.9968Z" fill="black"/>
</g>
<defs>
<clipPath id="clip0_96_390">
<rect width="52.5" height="35" fill="white" transform="translate(0.833252 0.996826)"/>
</clipPath>
</defs>
</svg>
