<svg width="100" height="26" viewBox="0 0 100 26" fill="none" xmlns="http://www.w3.org/2000/svg">
<path d="M2.45093 24.1843H23.8259V2.80933H2.45093V24.1843ZM19.7118 11.4402H15.1951V6.92349H19.7118V11.4402ZM6.56426 6.92349H11.0834V15.5535H19.7118V20.0702H6.56426V6.92349ZM37.7451 2.80933C35.6313 2.80933 33.5649 3.43614 31.8074 4.6105C30.0499 5.78486 28.68 7.45402 27.8711 9.40691C27.0622 11.3598 26.8506 13.5087 27.2629 15.5818C27.6754 17.655 28.6932 19.5593 30.1879 21.054C31.6825 22.5487 33.5869 23.5666 35.66 23.979C37.7333 24.3913 39.8821 24.1797 41.835 23.3708C43.7879 22.5619 45.457 21.1921 46.6314 19.4345C47.8058 17.6769 48.4326 15.6106 48.4326 13.4968C48.4293 10.6633 47.3022 7.94686 45.2986 5.94328C43.295 3.9397 40.5786 2.81263 37.7451 2.80933ZM37.7451 20.0702C36.445 20.0702 35.1741 19.6847 34.0931 18.9623C33.0122 18.2401 32.1696 17.2135 31.6721 16.0123C31.1746 14.8112 31.0444 13.4896 31.298 12.2144C31.5517 10.9393 32.1778 9.76808 33.097 8.84878C34.0164 7.92948 35.1876 7.30343 36.4627 7.0498C37.7378 6.79617 39.0594 6.92634 40.2606 7.42386C41.4617 7.92138 42.4884 8.7639 43.2106 9.84491C43.9329 10.9258 44.3184 12.1967 44.3184 13.4968C44.3158 15.2394 43.6224 16.9098 42.3902 18.142C41.158 19.3742 39.4876 20.0675 37.7451 20.0702ZM86.6776 2.80933C84.5634 2.80917 82.4974 3.43583 80.7397 4.61009C78.982 5.78435 77.6121 7.45345 76.803 9.40633C75.994 11.3592 75.7822 13.5082 76.1945 15.5813C76.6068 17.6546 77.6246 19.559 79.1193 21.0537C80.6139 22.5485 82.5182 23.5665 84.5918 23.9789C86.6643 24.3913 88.8134 24.1797 90.7668 23.3709C92.7193 22.562 94.3885 21.1922 95.5626 19.4346C96.7376 17.677 97.3643 15.6107 97.3643 13.4968C97.3609 10.6635 96.2343 7.94713 94.231 5.94358C92.2276 3.94002 89.5109 2.81286 86.6776 2.80933ZM86.6776 20.0702C85.3776 20.0703 84.1068 19.6849 83.0255 18.9627C81.9444 18.2406 81.1017 17.214 80.604 16.0129C80.1064 14.8118 79.9761 13.4901 80.2296 12.2149C80.4832 10.9398 81.1092 9.76849 82.0284 8.84908C82.9477 7.92969 84.1193 7.30356 85.3943 7.04986C86.6693 6.79616 87.9909 6.92628 89.1918 7.42378C90.3934 7.92128 91.4201 8.76379 92.1426 9.84483C92.8643 10.9258 93.2501 12.1967 93.2501 13.4968C93.2476 15.2392 92.5543 16.9095 91.3218 18.1417C90.0901 19.3738 88.4201 20.0673 86.6776 20.0702ZM62.2109 2.80933C60.0971 2.80933 58.0308 3.43614 56.2733 4.6105C54.5157 5.78486 53.1459 7.45402 52.3369 9.40691C51.528 11.3598 51.3164 13.5087 51.7288 15.5818C52.1412 17.655 53.159 19.5593 54.6537 21.054C56.1484 22.5487 58.0527 23.5666 60.1259 23.979C62.199 24.3913 64.3479 24.1797 66.3009 23.3708C68.2538 22.5619 69.9229 21.1921 71.0973 19.4345C72.2716 17.6769 72.8984 15.6106 72.8984 13.4968C72.8951 10.6633 71.768 7.94686 69.7644 5.94328C67.7609 3.9397 65.0444 2.81263 62.2109 2.80933ZM62.2109 20.0702C60.9996 20.0707 59.8118 19.7367 58.7784 19.1047C57.745 18.4728 56.9063 17.5677 56.3549 16.4892C55.8035 15.4107 55.5608 14.2008 55.6536 12.9932C55.7464 11.7854 56.1711 10.6268 56.8809 9.64524C57.5906 8.66371 58.5578 7.89733 59.6755 7.43075C60.7934 6.96416 62.0184 6.81551 63.2153 7.00119C64.4123 7.18688 65.5346 7.69968 66.4585 8.48301C67.3824 9.26633 68.0719 10.2897 68.4509 11.4402H62.2109V15.5535H68.4509C68.0169 16.8662 67.1805 18.0091 66.0604 18.8197C64.9404 19.6305 63.5936 20.0679 62.2109 20.0702Z" fill="black"/>
</svg>
