<svg width="140" height="31" viewBox="0 0 140 31" fill="none" xmlns="http://www.w3.org/2000/svg">
<path d="M22.4191 13.8678C22.0401 14.2491 21.7498 14.7093 21.569 15.2155C21.3882 15.7218 21.3213 16.2617 21.373 16.7968L21.355 16.7788C21.4082 17.4087 21.3232 18.0425 21.1061 18.6362C20.889 19.2298 20.5451 19.7689 20.0982 20.2159C19.6512 20.6628 19.112 21.0069 18.5183 21.2239C17.9247 21.441 17.2908 21.526 16.661 21.4728L16.6791 21.4908C15.9257 21.4207 15.1689 21.5846 14.512 21.9603C13.8552 22.336 13.3302 22.9051 13.0087 23.5901C12.6872 24.2751 12.5847 25.0425 12.7153 25.7879C12.846 26.5332 13.2033 27.2201 13.7386 27.7549C14.2739 28.2897 14.9611 28.6464 15.7065 28.7763C16.452 28.9063 17.2193 28.8031 17.904 28.481C18.5887 28.1588 19.1573 27.6334 19.5324 26.9762C19.9075 26.319 20.0708 25.5622 20 24.8088L20.019 24.8268C19.9658 24.197 20.0507 23.5631 20.2678 22.9694C20.4849 22.3758 20.829 21.8367 21.2759 21.3897C21.7229 20.9428 22.262 20.5987 22.8556 20.3817C23.4493 20.1646 24.0831 20.0796 24.713 20.1328L24.694 20.1148C25.3094 20.1701 25.929 20.0692 26.4951 19.8214C27.0611 19.5736 27.5554 19.1869 27.9322 18.6972C28.309 18.2075 28.5563 17.6305 28.6507 17.0199C28.7452 16.4092 28.6839 15.7846 28.4727 15.2038C28.2615 14.6231 27.9071 14.1051 27.4424 13.6978C26.9777 13.2905 26.4178 13.0071 25.8144 12.8739C25.211 12.7407 24.5837 12.7619 23.9907 12.9356C23.3977 13.1094 22.8582 13.43 22.4221 13.8678H22.4191Z" fill="black"/>
<path d="M15.0419 19.1328L15.0229 19.1148C15.5582 19.1687 16.0988 19.103 16.6057 18.9224C17.1125 18.7418 17.5729 18.4509 17.9535 18.0706C18.334 17.6903 18.6254 17.2301 18.8063 16.7234C18.9873 16.2167 19.0534 15.6762 18.9999 15.1408L19.0189 15.1588C18.9657 14.5289 19.0507 13.8951 19.2677 13.3014C19.4848 12.7078 19.8289 12.1687 20.2758 11.7217C20.7228 11.2748 21.2619 10.9307 21.8555 10.7137C22.4492 10.4966 23.083 10.4117 23.7129 10.4648L23.6939 10.4468C24.4474 10.5176 25.2043 10.3542 25.8615 9.97892C26.5188 9.60366 27.0442 9.03479 27.3662 8.34992C27.6882 7.66506 27.7911 6.89753 27.6609 6.15202C27.5307 5.40651 27.1737 4.71933 26.6385 4.18419C26.1034 3.64906 25.4162 3.29202 24.6707 3.1618C23.9252 3.03157 23.1577 3.13448 22.4728 3.4565C21.7879 3.77851 21.2191 4.30396 20.8438 4.96117C20.4685 5.61837 20.3051 6.37534 20.3759 7.12882L20.3579 7.10982C20.4112 7.73971 20.3264 8.37365 20.1094 8.96737C19.8924 9.56109 19.5483 10.1003 19.1014 10.5473C18.6544 10.9942 18.1152 11.3383 17.5215 11.5553C16.9277 11.7723 16.2938 11.8571 15.6639 11.8038L15.6819 11.8228C15.1466 11.7689 14.6059 11.8346 14.0991 12.0152C13.5923 12.1957 13.1319 12.4867 12.7513 12.867C12.3707 13.2473 12.0794 13.7075 11.8984 14.2142C11.7175 14.7209 11.6514 15.2614 11.7049 15.7968L11.6869 15.7788C11.7399 16.4086 11.6548 17.0424 11.4377 17.636C11.2205 18.2295 10.8765 18.7686 10.4296 19.2155C9.98267 19.6624 9.44363 20.0064 8.85007 20.2236C8.25651 20.4407 7.62272 20.5258 6.99291 20.4728L7.01091 20.4908C6.25743 20.42 5.50046 20.5834 4.84325 20.9587C4.18605 21.334 3.6606 21.9028 3.33859 22.5877C3.01657 23.2726 2.91365 24.0401 3.04388 24.7856C3.17411 25.5311 3.53115 26.2183 4.06628 26.7534C4.60142 27.2886 5.2886 27.6456 6.03411 27.7758C6.77962 27.906 7.54715 27.8031 8.23202 27.4811C8.91688 27.1591 9.48575 26.6337 9.86101 25.9765C10.2363 25.3192 10.3997 24.5623 10.3289 23.8088L10.3479 23.8268C10.2947 23.1969 10.3797 22.5631 10.5968 21.9694C10.8138 21.3758 11.1579 20.8367 11.6048 20.3897C12.0518 19.9428 12.5909 19.5987 13.1845 19.3817C13.7782 19.1646 14.412 19.0796 15.0419 19.1328Z" fill="black"/>
<path d="M8.33997 17.1258C8.71899 16.7446 9.00917 16.2844 9.18981 15.7781C9.37045 15.2718 9.43709 14.7318 9.38497 14.1968L9.40396 14.2148C9.35076 13.5848 9.43572 12.9507 9.65293 12.3569C9.87014 11.7631 10.2144 11.2239 10.6616 10.7769C11.1088 10.3299 11.6481 9.9859 12.242 9.76895C12.8359 9.55199 13.47 9.46729 14.1 9.52077L14.081 9.50277C14.8342 9.57334 15.5909 9.40985 16.2478 9.03461C16.9047 8.65938 17.4298 8.09065 17.7517 7.406C18.0735 6.72134 18.1763 5.95409 18.0461 5.20886C17.9159 4.46363 17.5589 3.77671 17.024 3.24177C16.4891 2.70683 15.8021 2.34991 15.0569 2.21969C14.3117 2.08946 13.5444 2.19228 12.8598 2.5141C12.1751 2.83592 11.6064 3.36109 11.2312 4.01799C10.8559 4.67489 10.6924 5.43155 10.763 6.18477L10.745 6.16677C10.7982 6.79662 10.7132 7.43049 10.4961 8.02413C10.279 8.61777 9.93499 9.15688 9.48803 9.60384C9.04108 10.0508 8.50196 10.3948 7.90832 10.6119C7.31468 10.829 6.68082 10.914 6.05097 10.8608L6.06897 10.8788C5.45354 10.8236 4.83413 10.9247 4.26815 11.1726C3.70217 11.4205 3.20792 11.8073 2.83121 12.2971C2.4545 12.7868 2.20752 13.3638 2.11314 13.9744C2.01877 14.5851 2.08006 15.2097 2.29133 15.7903C2.5026 16.371 2.85703 16.8889 3.32176 17.2961C3.78649 17.7034 4.34649 17.9867 4.94987 18.1199C5.55324 18.253 6.18047 18.2317 6.77344 18.058C7.3664 17.8842 7.9059 17.5636 8.34196 17.1258H8.33997Z" fill="black"/>
<path d="M39.3169 7.15186H42.2869V21.6049H39.3169V7.15186Z" fill="black"/>
<path d="M43.9689 16.6559C43.9648 15.6173 44.269 14.6007 44.843 13.7351C45.417 12.8695 46.235 12.1937 47.1934 11.7934C48.1518 11.393 49.2074 11.2861 50.2266 11.4862C51.2458 11.6863 52.1827 12.1843 52.9186 12.9173C53.6545 13.6502 54.1563 14.5851 54.3605 15.6035C54.5647 16.6219 54.462 17.678 54.0655 18.638C53.669 19.5979 52.9965 20.4187 52.1332 20.9961C51.2698 21.5736 50.2546 21.8819 49.2159 21.8819C48.5265 21.8898 47.8424 21.7601 47.2036 21.5005C46.5648 21.2409 45.9842 20.8566 45.4957 20.3701C45.0071 19.8835 44.6205 19.3044 44.3584 18.6667C44.0962 18.029 43.9638 17.3454 43.9689 16.6559ZM51.4929 16.6559C51.4805 16.2082 51.3364 15.7741 51.0787 15.4078C50.8209 15.0416 50.4609 14.7594 50.0437 14.5967C49.6264 14.4339 49.1705 14.3977 48.7328 14.4927C48.2951 14.5877 47.8951 14.8095 47.5828 15.1306C47.2706 15.4516 47.0598 15.8576 46.9771 16.2978C46.8943 16.7379 46.943 17.1927 47.1173 17.6053C47.2916 18.0179 47.5836 18.3699 47.9568 18.6174C48.3301 18.8649 48.7681 18.9969 49.2159 18.9969C49.5226 19.0051 49.8277 18.9496 50.112 18.834C50.3962 18.7184 50.6534 18.5452 50.8673 18.3253C51.0812 18.1053 51.2473 17.8434 51.3549 17.5561C51.4626 17.2688 51.5096 16.9623 51.4929 16.6559Z" fill="black"/>
<path d="M66.2999 11.7059V21.1059C66.2999 24.4319 63.7059 25.8379 61.0729 25.8379C60.1459 25.9073 59.2176 25.72 58.3899 25.2967C57.5623 24.8733 56.8672 24.2302 56.3809 23.4379L58.9149 21.9729C59.1193 22.3859 59.445 22.7266 59.8483 22.9495C60.2517 23.1723 60.7135 23.2667 61.1719 23.2199C61.4649 23.2605 61.7633 23.2347 62.045 23.1444C62.3266 23.0541 62.5844 22.9016 62.7992 22.6983C63.014 22.4949 63.1803 22.2459 63.2859 21.9695C63.3914 21.6932 63.4334 21.3967 63.4089 21.1019V20.1969C63.0611 20.6224 62.6185 20.9605 62.1164 21.184C61.6143 21.4075 61.0669 21.5102 60.5179 21.4839C59.2117 21.4427 57.9728 20.8949 57.0634 19.9563C56.154 19.0178 55.6455 17.7622 55.6455 16.4554C55.6455 15.1486 56.154 13.893 57.0634 12.9545C57.9728 12.0159 59.2117 11.4681 60.5179 11.4269C61.0669 11.4006 61.6143 11.5033 62.1164 11.7268C62.6185 11.9503 63.0611 12.2884 63.4089 12.7139V11.7039L66.2999 11.7059ZM63.4099 16.4569C63.4299 15.9783 63.3061 15.5046 63.0546 15.0969C62.8031 14.6891 62.4353 14.366 61.9986 14.1691C61.5619 13.9721 61.0763 13.9104 60.6042 13.9918C60.1321 14.0732 59.6952 14.294 59.3496 14.6259C59.0041 14.9577 58.7658 15.3853 58.6653 15.8537C58.5649 16.3221 58.6069 16.8099 58.7861 17.2542C58.9652 17.6985 59.2732 18.0791 59.6704 18.3469C60.0676 18.6147 60.5359 18.7575 61.0149 18.7569C61.327 18.7787 61.6401 18.7349 61.9342 18.6283C62.2283 18.5217 62.4968 18.3546 62.7224 18.138C62.948 17.9213 63.1258 17.6598 63.2442 17.3702C63.3626 17.0807 63.4191 16.7696 63.4099 16.4569Z" fill="black"/>
<path d="M67.9821 16.6559C67.978 15.6173 68.2821 14.6007 68.8562 13.7351C69.4302 12.8695 70.2482 12.1937 71.2066 11.7934C72.165 11.393 73.2206 11.2861 74.2398 11.4862C75.259 11.6863 76.1959 12.1843 76.9318 12.9173C77.6677 13.6502 78.1695 14.5851 78.3737 15.6035C78.5779 16.6219 78.4752 17.678 78.0787 18.638C77.6822 19.5979 77.0097 20.4187 76.1464 20.9961C75.283 21.5736 74.2678 21.8819 73.2291 21.8819C72.5397 21.8898 71.8555 21.7601 71.2168 21.5005C70.578 21.2409 69.9974 20.8566 69.5089 20.3701C69.0203 19.8835 68.6337 19.3044 68.3716 18.6667C68.1094 18.029 67.977 17.3454 67.9821 16.6559ZM75.5061 16.6559C75.4937 16.2082 75.3496 15.7741 75.0919 15.4078C74.8341 15.0416 74.4741 14.7594 74.0569 14.5967C73.6396 14.4339 73.1836 14.3977 72.746 14.4927C72.3083 14.5877 71.9083 14.8095 71.596 15.1306C71.2838 15.4516 71.073 15.8576 70.9902 16.2978C70.9074 16.7379 70.9562 17.1927 71.1305 17.6053C71.3048 18.0179 71.5968 18.3699 71.97 18.6174C72.3433 18.8649 72.7812 18.9969 73.2291 18.9969C73.5358 19.0051 73.8409 18.9496 74.1251 18.834C74.4094 18.7184 74.6666 18.5452 74.8805 18.3253C75.0944 18.1053 75.2605 17.8434 75.3681 17.5561C75.4758 17.2688 75.5228 16.9623 75.5061 16.6559Z" fill="black"/>
<path d="M79.8611 9.05275C79.8611 8.7003 79.9656 8.35577 80.1614 8.06273C80.3572 7.76968 80.6356 7.54127 80.9612 7.4064C81.2868 7.27152 81.6451 7.23623 81.9908 7.30499C82.3364 7.37375 82.654 7.54347 82.9032 7.79269C83.1524 8.0419 83.3221 8.35942 83.3909 8.7051C83.4596 9.05077 83.4243 9.40907 83.2895 9.73469C83.1546 10.0603 82.9262 10.3386 82.6331 10.5345C82.3401 10.7303 81.9956 10.8348 81.6431 10.8348C81.172 10.8301 80.7214 10.6409 80.3882 10.3076C80.0551 9.97445 79.8658 9.52391 79.8611 9.05275ZM80.1611 11.7058H83.1321V21.6058H80.1571L80.1611 11.7058Z" fill="black"/>
<path d="M95.9559 16.6559C95.9902 17.3102 95.8949 17.9648 95.6753 18.5821C95.4558 19.1994 95.1164 19.7672 94.6766 20.2529C94.2369 20.7385 93.7054 21.1325 93.1129 21.4121C92.5203 21.6916 91.8784 21.8513 91.2239 21.8819C90.6735 21.9119 90.1234 21.8191 89.6133 21.6102C89.1032 21.4012 88.6461 21.0814 88.2749 20.6739V25.5649H85.3049V11.7059H88.2749V12.6359C88.6462 12.2287 89.1035 11.9091 89.6135 11.7004C90.1236 11.4916 90.6736 11.3989 91.2239 11.4289C91.8785 11.4594 92.5206 11.619 93.1133 11.8986C93.706 12.1782 94.2375 12.5722 94.6773 13.058C95.1171 13.5438 95.4565 14.1118 95.6759 14.7293C95.8953 15.3467 95.9905 16.0015 95.9559 16.6559ZM92.9859 16.6559C92.9743 16.1926 92.8263 15.743 92.5604 15.3633C92.2945 14.9837 91.9226 14.6909 91.4912 14.5217C91.0597 14.3524 90.5879 14.3141 90.1348 14.4117C89.6817 14.5092 89.2675 14.7382 88.9439 15.07C88.6203 15.4019 88.4018 15.8217 88.3157 16.2772C88.2296 16.7326 88.2797 17.2032 88.4598 17.6303C88.6398 18.0574 88.9419 18.4218 89.3281 18.6781C89.7143 18.9343 90.1674 19.071 90.6309 19.0709C90.9491 19.0851 91.2667 19.0318 91.5629 18.9146C91.859 18.7975 92.1271 18.619 92.3494 18.391C92.5718 18.1629 92.7434 17.8905 92.8531 17.5915C92.9628 17.2925 93.0081 16.9736 92.9859 16.6559Z" fill="black"/>
<path d="M105.121 18.6349C105.121 20.9119 103.142 21.8819 101.004 21.8819C100.14 21.9601 99.2728 21.7775 98.5139 21.3574C97.755 20.9374 97.1396 20.2994 96.7471 19.5259L99.3201 18.0609C99.4242 18.4184 99.6478 18.7295 99.9535 18.942C100.259 19.1546 100.629 19.2559 101 19.2289C101.712 19.2289 102.069 19.0109 102.069 18.6159C102.069 17.5259 97.1981 18.1009 97.1981 14.6759C97.1981 12.5169 99.0201 11.4289 101.079 11.4289C101.853 11.4044 102.619 11.588 103.298 11.9605C103.977 12.3331 104.544 12.8809 104.939 13.5469L102.405 14.9129C102.294 14.6536 102.109 14.4327 101.873 14.2778C101.637 14.1229 101.361 14.0409 101.079 14.0419C100.564 14.0419 100.247 14.2419 100.247 14.5959C100.251 15.7249 105.121 14.9719 105.121 18.6349Z" fill="black"/>
<path d="M115.97 11.7058V21.6058H113V20.6748C112.657 21.0856 112.222 21.4093 111.73 21.6193C111.238 21.8293 110.704 21.9196 110.17 21.8828C108.17 21.8828 106.47 20.4578 106.47 17.7828V11.7058H109.44V17.3478C109.415 17.5836 109.442 17.822 109.519 18.0463C109.595 18.2707 109.72 18.4757 109.884 18.647C110.048 18.8183 110.247 18.9518 110.468 19.0383C110.688 19.1248 110.925 19.1622 111.162 19.1478C112.251 19.1478 113.003 18.5148 113.003 17.1088V11.7088L115.97 11.7058Z" fill="black"/>
<path d="M133 15.5268V21.6048H130.03V15.7838C130.03 14.7938 129.555 14.1608 128.605 14.1608C127.615 14.1608 127.06 14.8538 127.06 16.0218V21.6048H124.091V15.7838C124.091 14.7938 123.616 14.1608 122.665 14.1608C121.675 14.1608 121.121 14.8538 121.121 16.0218V21.6048H118.151V11.7048H121.121V12.6148C121.429 12.2111 121.833 11.8909 122.296 11.6836C122.76 11.4762 123.268 11.3883 123.774 11.4278C124.282 11.4029 124.788 11.5102 125.243 11.7391C125.697 11.9679 126.084 12.3107 126.367 12.7338C126.696 12.2911 127.132 11.9391 127.634 11.7107C128.136 11.4823 128.688 11.385 129.238 11.4278C131.511 11.4288 133 13.0518 133 15.5268Z" fill="black"/>
<path d="M135.512 11.6448C136.729 11.6448 137.716 10.658 137.716 9.44082C137.716 8.22358 136.729 7.23682 135.512 7.23682C134.295 7.23682 133.308 8.22358 133.308 9.44082C133.308 10.658 134.295 11.6448 135.512 11.6448Z" fill="black"/>
</svg>
